<svg width="370" height="57" viewBox="0 0 370 57" fill="none" xmlns="http://www.w3.org/2000/svg">
<path d="M159.872 36.8112V44.1251H129.883V1.20891H159.324V8.5228H138.277V18.859H156.465V25.6288H138.277V36.8112H159.872Z" fill="#1F2937"/>
<path d="M170.674 12.4517L177.547 22.3648L178.034 23.4528L178.642 22.3648L185.455 12.4517H193.85L182.475 28.3489L194.032 44.1251H185.638L178.582 34.2725L178.034 33.245L177.547 34.2725L170.552 44.1251H162.158L173.654 28.3489L162.34 12.4517H170.674Z" fill="#1F2937"/>
<path d="M217.04 44.7296C214.526 44.7296 212.336 44.1856 210.471 43.0976C208.606 41.9692 207.146 40.4581 206.091 38.5642V57H197.94V12.4517H205.057V17.8918C206.233 16.0382 207.754 14.5875 209.619 13.5398C211.485 12.4517 213.634 11.9077 216.067 11.9077C218.216 11.9077 220.204 12.351 222.028 13.2375C223.853 14.0838 225.414 15.2524 226.712 16.7434C228.05 18.1941 229.084 19.9268 229.814 21.9417C230.585 23.9162 230.97 26.0117 230.97 28.228C230.97 30.5249 230.625 32.6808 229.936 34.6957C229.247 36.7105 228.273 38.4634 227.016 39.9544C225.8 41.4454 224.34 42.614 222.637 43.4602C220.933 44.3065 219.068 44.7296 217.04 44.7296ZM214.303 37.8388C215.52 37.8388 216.635 37.5769 217.649 37.053C218.703 36.5292 219.595 35.824 220.325 34.9374C221.055 34.0509 221.623 33.0233 222.028 31.8547C222.434 30.6861 222.637 29.4772 222.637 28.228C222.637 26.8982 222.414 25.6691 221.968 24.5408C221.521 23.3722 220.893 22.3648 220.082 21.5186C219.311 20.6723 218.379 20.0074 217.284 19.5239C216.229 19.0403 215.074 18.7985 213.817 18.7985C213.046 18.7985 212.255 18.9396 211.444 19.2216C210.633 19.4634 209.883 19.8261 209.194 20.3096C208.504 20.7932 207.876 21.3574 207.308 22.0021C206.781 22.6469 206.375 23.3521 206.091 24.1177V31.5525C206.821 33.3659 207.936 34.877 209.437 36.0859C210.937 37.2545 212.559 37.8388 214.303 37.8388Z" fill="#1F2937"/>
<path d="M236.432 0H244.583V33.9703C244.583 35.1389 244.867 36.0456 245.435 36.6903C246.002 37.3351 246.813 37.6575 247.868 37.6575C248.354 37.6575 248.881 37.5769 249.449 37.4157C250.058 37.2545 250.625 37.053 251.152 36.8112L252.247 42.9767C251.152 43.5005 249.875 43.9035 248.415 44.1856C246.955 44.4677 245.637 44.6087 244.461 44.6087C241.906 44.6087 239.919 43.9438 238.5 42.614C237.121 41.2439 236.432 39.3097 236.432 36.8112V0Z" fill="#1F2937"/>
<path d="M270.519 44.7296C267.924 44.7296 265.592 44.2863 263.524 43.3998C261.456 42.5133 259.692 41.3245 258.232 39.8335C256.812 38.3022 255.718 36.5493 254.947 34.5748C254.177 32.6002 253.791 30.5249 253.791 28.3489C253.791 26.1326 254.177 24.0371 254.947 22.0626C255.718 20.088 256.812 18.3552 258.232 16.8643C259.692 15.333 261.456 14.1241 263.524 13.2375C265.592 12.351 267.924 11.9077 270.519 11.9077C273.115 11.9077 275.426 12.351 277.454 13.2375C279.522 14.1241 281.266 15.333 282.685 16.8643C284.145 18.3552 285.26 20.088 286.03 22.0626C286.801 24.0371 287.186 26.1326 287.186 28.3489C287.186 30.5249 286.801 32.6002 286.03 34.5748C285.26 36.5493 284.165 38.3022 282.746 39.8335C281.326 41.3245 279.583 42.5133 277.514 43.3998C275.446 44.2863 273.115 44.7296 270.519 44.7296ZM262.186 28.3489C262.186 29.7593 262.388 31.0488 262.794 32.2174C263.24 33.3457 263.828 34.333 264.558 35.1792C265.328 36.0254 266.221 36.6903 267.234 37.1739C268.248 37.6172 269.343 37.8388 270.519 37.8388C271.695 37.8388 272.79 37.6172 273.804 37.1739C274.818 36.6903 275.69 36.0254 276.42 35.1792C277.19 34.333 277.778 33.3256 278.184 32.1569C278.63 30.9883 278.853 29.6988 278.853 28.2884C278.853 26.9183 278.63 25.649 278.184 24.4804C277.778 23.3118 277.19 22.3043 276.42 21.4581C275.69 20.6119 274.818 19.9671 273.804 19.5239C272.79 19.0403 271.695 18.7985 270.519 18.7985C269.343 18.7985 268.248 19.0403 267.234 19.5239C266.221 20.0074 265.328 20.6723 264.558 21.5186C263.828 22.3648 263.24 23.3722 262.794 24.5408C262.388 25.7094 262.186 26.9788 262.186 28.3489Z" fill="#1F2937"/>
<path d="M311.666 19.4634C309.193 19.5037 306.983 19.9873 305.036 20.9141C303.09 21.8006 301.69 23.1506 300.839 24.9639V44.1251H292.688V12.4517H300.17V19.2216C300.738 18.1336 301.407 17.1665 302.177 16.3203C302.948 15.4337 303.779 14.6681 304.671 14.0233C305.563 13.3786 306.455 12.895 307.348 12.5726C308.28 12.21 309.172 12.0286 310.024 12.0286C310.47 12.0286 310.795 12.0286 310.997 12.0286C311.241 12.0286 311.464 12.0488 311.666 12.0891V19.4634Z" fill="#1F2937"/>
<path d="M329.389 44.7296C326.834 44.7296 324.523 44.3065 322.454 43.4602C320.386 42.5737 318.622 41.3849 317.162 39.894C315.702 38.403 314.567 36.6702 313.756 34.6957C312.985 32.7211 312.6 30.6458 312.6 28.4698C312.6 26.2131 312.985 24.0976 313.756 22.123C314.526 20.1082 315.642 18.3552 317.102 16.8643C318.561 15.333 320.325 14.1241 322.394 13.2375C324.502 12.351 326.854 11.9077 329.45 11.9077C332.045 11.9077 334.357 12.351 336.384 13.2375C338.452 14.1241 340.196 15.3128 341.615 16.8038C343.075 18.2948 344.17 20.0276 344.9 22.0021C345.671 23.9767 346.056 26.0318 346.056 28.1676C346.056 28.6914 346.036 29.1951 345.995 29.6787C345.995 30.1622 345.955 30.5652 345.873 30.8876H321.238C321.359 32.1368 321.664 33.245 322.15 34.2121C322.637 35.1792 323.265 36.0053 324.036 36.6903C324.806 37.3754 325.678 37.8993 326.652 38.2619C327.625 38.6246 328.639 38.8059 329.693 38.8059C331.315 38.8059 332.836 38.4231 334.255 37.6575C335.715 36.8515 336.709 35.8038 337.236 34.5143L344.231 36.4486C343.055 38.8664 341.169 40.8611 338.574 42.4327C336.019 43.9639 332.957 44.7296 329.389 44.7296ZM337.662 25.6288C337.459 23.2513 336.567 21.3574 334.985 19.947C333.444 18.4963 331.558 17.7709 329.328 17.7709C328.233 17.7709 327.199 17.9724 326.226 18.3754C325.293 18.7381 324.462 19.2619 323.732 19.947C323.002 20.632 322.394 21.4581 321.907 22.4252C321.461 23.3924 321.197 24.4602 321.116 25.6288H337.662Z" fill="#1F2937"/>
<path d="M370 19.4634C367.526 19.5037 365.316 19.9873 363.37 20.9141C361.423 21.8006 360.024 23.1506 359.173 24.9639V44.1251H351.021V12.4517H358.503V19.2216C359.071 18.1336 359.74 17.1665 360.511 16.3203C361.281 15.4337 362.113 14.6681 363.005 14.0233C363.897 13.3786 364.789 12.895 365.681 12.5726C366.614 12.21 367.506 12.0286 368.358 12.0286C368.804 12.0286 369.128 12.0286 369.331 12.0286C369.574 12.0286 369.797 12.0488 370 12.0891V19.4634Z" fill="#1F2937"/>
<path d="M84.064 37.8388C80.0493 42.2312 75.4263 44.4274 70.1951 44.4274C67.2753 44.4274 64.5786 43.8028 62.1049 42.5536C59.6717 41.3043 57.5427 39.6522 55.7179 37.597C53.9336 35.5419 52.5345 33.2248 51.5207 30.6458C50.5069 28.0265 50 25.3468 50 22.6066C50 19.7455 50.4866 17.0053 51.4599 14.386C52.4737 11.7667 53.8728 9.46978 55.6571 7.49523C57.4414 5.48038 59.5501 3.88865 61.9832 2.72004C64.4164 1.51113 67.0725 0.90668 69.9518 0.90668C72.0605 0.90668 73.9867 1.14846 75.7305 1.63203C77.4742 2.07529 79.0152 2.72004 80.3534 3.56628C81.7322 4.37222 82.9083 5.35949 83.8815 6.5281C84.8953 7.65641 85.7469 8.90562 86.4363 10.2757L83.1516 12.4517C81.7322 9.79215 79.8871 7.83775 77.6162 6.58854C75.3452 5.33934 72.7702 4.71474 69.8909 4.71474C67.4983 4.71474 65.3288 5.21845 63.3823 6.22587C61.4763 7.2333 59.8339 8.58324 58.4552 10.2757C57.1169 11.9279 56.0829 13.842 55.3529 16.018C54.623 18.1538 54.258 20.3701 54.258 22.667C54.258 25.0848 54.6635 27.3818 55.4746 29.5578C56.3262 31.7338 57.4819 33.6479 58.9418 35.3001C60.4017 36.912 62.1049 38.2015 64.0514 39.1686C66.0385 40.1357 68.1877 40.6193 70.4992 40.6193C72.9729 40.6193 75.325 40.0551 77.5553 38.9268C79.8263 37.7582 81.9958 35.9247 84.064 33.4263V26.2937H74.4531V23.0297H87.6529V44.1251H84.064V37.8388Z" fill="#E5E7EB"/>
<path d="M95.5497 44.1251V12.6331H99.686V44.1251H95.5497ZM95.5497 6.04454V0H99.686V6.04454H95.5497Z" fill="#E5E7EB"/>
<path d="M124.004 42.614C123.76 42.7349 123.395 42.8961 122.909 43.0976C122.463 43.299 121.935 43.5005 121.327 43.702C120.719 43.9035 120.03 44.0848 119.259 44.246C118.489 44.4072 117.677 44.4878 116.826 44.4878C115.934 44.4878 115.082 44.3669 114.271 44.1251C113.46 43.8834 112.75 43.5207 112.142 43.0371C111.534 42.5133 111.047 41.8685 110.682 41.1029C110.317 40.3372 110.135 39.4507 110.135 38.4433V15.8971H105.755V12.6331H110.135V1.9947H114.271V12.6331H121.57V15.8971H114.271V37.2948C114.352 38.4634 114.758 39.3298 115.488 39.894C116.258 40.4178 117.13 40.6797 118.103 40.6797C119.279 40.6797 120.313 40.4984 121.206 40.1357C122.098 39.7328 122.665 39.4507 122.909 39.2895L124.004 42.614Z" fill="#E5E7EB"/>
<path fill-rule="evenodd" clip-rule="evenodd" d="M22.5 3.59375C12.0584 3.59375 3.59375 12.0584 3.59375 22.5C3.59375 32.9416 12.0584 41.4062 22.5 41.4062C32.9416 41.4062 41.4062 32.9416 41.4062 22.5C41.4062 12.0584 32.9416 3.59375 22.5 3.59375ZM0.15625 22.5C0.15625 10.1599 10.1599 0.15625 22.5 0.15625C34.8401 0.15625 44.8438 10.1599 44.8438 22.5C44.8438 34.8401 34.8401 44.8438 22.5 44.8438C10.1599 44.8438 0.15625 34.8401 0.15625 22.5Z" fill="#7CE8E2"/>
<path fill-rule="evenodd" clip-rule="evenodd" d="M24.0038 21.8288L28.9014 22.4918C29.3868 22.5493 29.8531 22.7151 30.2659 22.9769L41.92 30.1454C42.7286 30.6427 42.9808 31.7013 42.4835 32.5099C41.9862 33.3184 40.9276 33.5707 40.119 33.0733L28.458 25.9006L23.5558 25.237L23.5539 25.2414L20.6106 31.8371L20.6078 31.8434L24.6522 36.2104C25.0129 36.6069 25.2771 37.0813 25.4244 37.5967C25.5716 38.112 25.5979 38.6544 25.501 39.1816L25.497 39.2033L24.659 43.4572C24.4756 44.3885 23.5718 44.9948 22.6405 44.8113C21.7092 44.6279 21.1029 43.7242 21.2863 42.7928L22.1205 38.5576C22.1211 38.5521 22.1207 38.5464 22.1191 38.541C22.1175 38.5353 22.1147 38.53 22.1109 38.5255L18.0758 34.1684C17.6206 33.6726 17.3209 33.054 17.2139 32.3895C17.1072 31.7263 17.1972 31.0463 17.4726 30.4337L20.4084 23.8549C20.7008 23.1715 21.2095 22.6027 21.8567 22.2362C22.508 21.8674 23.2629 21.7242 24.0038 21.8288Z" fill="#7CE8E2"/>
<path fill-rule="evenodd" clip-rule="evenodd" d="M9.63648 5.36322C10.5102 5.73416 10.9179 6.74319 10.5469 7.61695L8.61789 12.1609L8.61865 12.1629L11.0894 18.7372L11.0974 18.7592L15.677 19.7436C16.1894 19.8492 16.6705 20.0718 17.0828 20.3941C17.4969 20.7178 17.8301 21.1333 18.0563 21.6077L18.0585 21.6125L18.8585 23.2755C18.8619 23.2808 18.8664 23.2852 18.8718 23.2886C18.8775 23.2921 18.8839 23.2943 18.8906 23.2949H21.7695C22.7188 23.2949 23.4883 24.0644 23.4883 25.0137C23.4883 25.9629 22.7188 26.7324 21.7695 26.7324H18.8691L18.8444 26.7322C18.2092 26.7231 17.5886 26.5403 17.0499 26.2036C16.5112 25.8669 16.0749 25.3892 15.7883 24.8222L15.7734 24.7919L14.9625 23.106L10.3674 22.1183L10.3664 22.1181C9.79494 21.9958 9.26441 21.7289 8.82554 21.343C8.39164 20.9615 8.06168 20.4762 7.86641 19.9327L5.40166 13.3743L5.4012 13.3731C5.09243 12.5537 5.10795 11.6474 5.44463 10.8391L5.44913 10.8283L7.38276 6.27367C7.75369 5.39991 8.76272 4.99229 9.63648 5.36322Z" fill="#7CE8E2"/>
<path fill-rule="evenodd" clip-rule="evenodd" d="M26.9313 1.03729C27.7617 0.577561 28.8077 0.878114 29.2674 1.7086L31.2718 5.32945C31.6385 6.00393 31.7703 6.78125 31.6466 7.53892C31.5229 8.29659 31.1506 8.99158 30.5885 9.51442L30.5701 9.53127L24.8052 14.739C24.6066 14.9254 24.3854 15.0862 24.1468 15.2177L24.1453 15.2186L21.5054 16.678L21.4794 16.6921C20.9932 16.9501 20.4538 17.092 19.9035 17.1068C19.8882 17.1072 19.8728 17.1074 19.8574 17.1074H15.2676C15.2637 17.1076 15.26 17.1088 15.2567 17.111C15.2536 17.113 15.2511 17.1159 15.2494 17.1192L13.4706 21.3412C13.1021 22.2159 12.0942 22.6263 11.2194 22.2577C10.3446 21.8892 9.93425 20.8813 10.3028 20.0065L12.0909 15.7624C12.3569 15.1439 12.7976 14.6165 13.3589 14.2449C13.9202 13.8732 14.5778 13.6734 15.251 13.6699L15.2598 13.6699L19.8209 13.6699C19.8354 13.6684 19.8495 13.6645 19.8627 13.6583L22.4684 12.2178C22.4744 12.2122 22.4804 12.2067 22.4865 12.2011L28.2492 6.99549C28.2517 6.99253 28.2534 6.98891 28.254 6.98503C28.2547 6.98075 28.2541 6.97638 28.2523 6.97248L26.2599 3.37343C25.8002 2.54295 26.1008 1.49702 26.9313 1.03729Z" fill="#7CE8E2"/>
</svg>
