<svg width="330" height="65" viewBox="0 0 330 65" fill="none" xmlns="http://www.w3.org/2000/svg">
<path d="M56.7788 44.325C55.2315 43.1645 54.1765 41.7402 53.6138 40.0522C53.0512 38.3643 52.8753 36.5356 53.0863 34.5663C53.2973 32.5618 53.8248 30.4869 54.6688 28.3418C55.5128 26.1615 56.5502 24.0339 57.7811 21.9591C59.047 19.8842 60.4537 17.9149 62.001 16.0511C63.5835 14.1521 65.1836 12.4993 66.8013 11.0926C68.4541 9.65077 70.0718 8.50786 71.6543 7.66387C73.2719 6.7847 74.7489 6.30995 76.0852 6.23962C76.7182 6.06379 77.3512 6.08137 77.9842 6.29237C78.6524 6.50337 79.2502 6.83745 79.7777 7.29462C80.3052 7.71662 80.7448 8.22653 81.0965 8.82436C81.4481 9.42219 81.6767 10.02 81.7822 10.6179C81.8877 11.1805 81.8174 11.7256 81.5712 12.2531C81.325 12.7454 80.8679 13.1147 80.1997 13.3608C80.0942 13.4312 79.9184 13.4663 79.6722 13.4663C79.4612 13.4663 79.3557 13.4312 79.3557 13.3608V9.19361C79.3557 9.12328 79.2678 9.05294 79.092 8.98261C78.9161 8.87711 78.7051 8.80678 78.459 8.77161C78.248 8.70128 78.0194 8.64853 77.7732 8.61336C77.5622 8.57819 77.3864 8.57819 77.2457 8.61336C73.7642 9.49252 70.7751 10.9695 68.2783 13.0443C65.8166 15.1192 63.7594 17.5808 62.1065 20.4293C59.7504 24.5438 58.0272 27.9725 56.9371 30.7155C55.8821 33.4585 55.2842 35.6388 55.1436 37.2565C55.0381 38.8742 55.337 40.0171 56.0403 40.6852C56.7436 41.3182 57.6931 41.5996 58.8888 41.5292C60.0845 41.4589 61.4735 41.1072 63.056 40.4742C64.6385 39.8061 66.2386 38.9972 67.8563 38.0478C69.5091 37.0631 71.1092 35.9905 72.6565 34.83C74.2038 33.6344 75.5577 32.4914 76.7182 31.4013C77.8787 30.3111 78.7579 29.3265 79.3557 28.4473C79.9887 27.533 80.1997 26.8648 79.9887 26.4428C79.4261 26.3373 78.8106 26.3725 78.1425 26.5483C77.4743 26.689 76.8941 26.8472 76.4017 27.023C76.0852 27.1285 75.4874 27.322 74.6082 27.6033C73.7642 27.8846 72.8675 28.1835 71.918 28.5C70.9685 28.8165 70.0718 29.1155 69.2278 29.3968C68.3838 29.6781 67.8035 29.8891 67.487 30.0298C66.9947 30.2056 66.5727 30.1704 66.221 29.9243C65.9045 29.6429 65.6759 29.3089 65.5353 28.922C65.4298 28.5 65.4298 28.1132 65.5353 27.7615C65.6408 27.3747 65.8869 27.1285 66.2738 27.023C66.8364 26.9175 67.8211 26.6186 69.2278 26.1263C70.6696 25.5988 72.2872 25.0361 74.0807 24.4383C75.8742 23.8053 77.7205 23.1899 79.6195 22.5921C81.5185 21.9942 83.1889 21.5546 84.6307 21.2733C86.0725 20.992 87.1627 20.9568 87.9012 21.1678C88.6749 21.3436 88.8331 21.9063 88.3759 22.8558C88.0594 23.2075 87.4792 23.8229 86.6352 24.7021C85.7912 25.546 84.8945 26.4428 83.945 27.3923C82.9955 28.3418 82.0811 29.2385 81.202 30.0825C80.358 30.9265 79.7601 31.5068 79.4085 31.8233C79.2678 31.9288 78.8634 32.2629 78.1952 32.8255C77.5622 33.3882 76.8237 34.0212 75.9797 34.7245C75.1709 35.3927 74.3621 36.0784 73.5532 36.7818C72.7444 37.4499 72.1114 37.9598 71.6543 38.3115C71.1971 38.6983 70.6168 39.1907 69.9135 39.7885C69.2102 40.3863 68.4189 41.0017 67.5398 41.6347C66.6958 42.2326 65.799 42.8128 64.8495 43.3755C63.9 43.903 62.9505 44.325 62.001 44.6415C61.0515 44.958 60.1196 45.1162 59.2053 45.1162C58.3261 45.1162 57.5173 44.8525 56.7788 44.325Z" fill="#1F2937"/>
<path d="M85.5275 44.325C86.9693 39.683 88.2704 36.0081 89.4309 33.3003C90.6266 30.5573 91.6113 28.6407 92.3849 27.5505C93.1938 26.4604 93.7388 26.1087 94.0202 26.4955C94.3015 26.8824 94.2663 27.867 93.9147 29.4495C93.5982 31.032 92.8948 33.1596 91.8047 35.8323C90.7497 38.4698 89.2551 41.4941 87.3209 44.9052C87.0396 45.0107 86.7055 45.0283 86.3187 44.958C85.9319 44.8876 85.6681 44.6766 85.5275 44.325ZM94.7587 18.9523C94.6883 18.7765 94.6532 18.46 94.6532 18.0028C94.6532 17.5457 94.6883 17.2643 94.7587 17.1588C95.5675 16.8775 96.1829 16.8423 96.6049 17.0533C97.0269 17.2643 97.2907 17.5808 97.3962 18.0028C97.5017 18.3897 97.4841 18.8117 97.3434 19.2688C97.2379 19.726 97.0445 20.0777 96.7632 20.3238C96.4818 20.5348 96.1477 20.57 95.7609 20.4293C95.4092 20.2535 95.0752 19.7612 94.7587 18.9523Z" fill="#1F2937"/>
<path d="M103.146 44.325C103.111 44.2546 103.093 44.0612 103.093 43.7447C103.093 43.4282 103.111 43.2172 103.146 43.1117C103.251 42.7249 103.445 42.0567 103.726 41.1072C104.007 40.1226 104.306 39.1027 104.623 38.0478C104.939 36.9576 105.238 35.9378 105.52 34.9883C105.801 34.0388 105.994 33.3706 106.1 32.9838C106.241 32.4914 106.399 31.9288 106.575 31.2958C106.75 30.6276 106.786 29.9946 106.68 29.3968C106.153 29.3265 105.502 29.3968 104.728 29.6078C103.955 29.7836 103.181 29.9419 102.407 30.0825C101.669 30.188 100.966 30.188 100.297 30.0825C99.6644 29.9419 99.2072 29.5199 98.9259 28.8165C99.3479 27.9374 99.9809 27.3747 100.825 27.1285C101.669 26.8472 102.583 26.6538 103.568 26.5483C104.553 26.4428 105.484 26.2845 106.364 26.0735C107.278 25.8625 107.999 25.3878 108.526 24.6493C108.843 23.735 109.212 22.6272 109.634 21.3261C110.091 19.9897 110.566 18.6007 111.058 17.1588C111.551 15.717 112.078 14.2928 112.641 12.8861C113.239 11.4794 113.854 10.231 114.487 9.14086C114.874 8.89469 115.19 8.87711 115.437 9.08811C115.683 9.29911 115.859 9.61561 115.964 10.0376C116.105 10.4244 116.193 10.8289 116.228 11.2509C116.263 11.6729 116.263 11.9542 116.228 12.0948C116.017 13.0092 115.648 13.9938 115.12 15.0488C114.628 16.0687 114.153 17.1061 113.696 18.1611C113.274 19.2161 112.922 20.2711 112.641 21.3261C112.395 22.3811 112.395 23.3833 112.641 24.3328H123.982C124.017 24.3328 124.105 24.4559 124.246 24.7021C124.386 24.9131 124.51 25.0889 124.615 25.2295C124.791 25.7219 124.597 26.056 124.035 26.2318C123.472 26.4076 122.716 26.5307 121.767 26.601C120.817 26.6362 119.727 26.6714 118.496 26.7065C117.3 26.7065 116.14 26.7945 115.015 26.9703C113.924 27.111 112.94 27.3747 112.061 27.7615C111.181 28.1132 110.584 28.6583 110.267 29.3968C109.353 31.7529 108.509 34.1267 107.735 36.518C106.961 38.8742 106.223 41.2655 105.52 43.692C105.449 43.7975 105.309 43.9733 105.098 44.2195C104.887 44.4305 104.658 44.6239 104.412 44.7997C104.166 44.9404 103.92 44.9931 103.673 44.958C103.462 44.9228 103.287 44.7118 103.146 44.325Z" fill="#1F2937"/>
<path d="M121.978 43.692C121.767 43.5161 121.819 43.3227 122.136 43.1117C122.487 41.8457 122.839 40.6325 123.191 39.472C123.578 38.3115 123.982 37.1686 124.404 36.0433C124.826 34.8828 125.266 33.7223 125.723 32.5618C126.215 31.3661 126.725 30.1177 127.253 28.8165C127.428 28.5 127.393 28.1835 127.147 27.867C126.936 27.5154 126.672 27.1813 126.356 26.8648C126.074 26.5131 125.863 26.1615 125.723 25.8098C125.617 25.423 125.758 25.0361 126.145 24.6493C126.18 24.6141 126.303 24.5614 126.514 24.4911C126.76 24.4207 127.024 24.368 127.305 24.3328C127.587 24.2625 127.833 24.2097 128.044 24.1746C128.29 24.1042 128.448 24.0515 128.519 24.0163C128.624 23.946 128.817 23.7701 129.099 23.4888C129.415 23.1723 129.609 22.9613 129.679 22.8558C130.242 21.9063 130.769 21.0623 131.262 20.3238C131.789 19.5853 132.264 18.8468 132.686 18.1083C133.143 17.3698 133.547 16.5962 133.899 15.7873C134.251 14.9785 134.567 14.029 134.849 12.9388C134.954 12.5168 134.849 12.2531 134.532 12.1476C134.251 12.0069 133.917 11.8839 133.53 11.7784C133.143 11.6729 132.826 11.5146 132.58 11.3036C132.334 11.0574 132.317 10.6179 132.528 9.98486C132.668 9.59803 133.336 9.17603 134.532 8.71886C135.763 8.2617 137.31 7.82211 139.174 7.40012C141.038 6.97812 143.13 6.59129 145.451 6.23962C147.772 5.88795 150.093 5.60662 152.414 5.39562C154.735 5.18462 156.951 5.06154 159.061 5.02637C161.171 4.95604 162.964 5.02638 164.441 5.23737C165.918 5.41321 166.973 5.74729 167.606 6.23962C168.239 6.69679 168.222 7.34737 167.553 8.19136C167.237 8.2617 166.903 8.27928 166.551 8.24411C166.235 8.17378 165.901 8.08586 165.549 7.98036C165.197 7.87486 164.828 7.78695 164.441 7.71661C164.054 7.61112 163.685 7.57595 163.333 7.61112C161.645 7.75178 159.993 7.80453 158.375 7.76937C156.757 7.7342 155.14 7.71661 153.522 7.71661C151.904 7.71661 150.287 7.78695 148.669 7.92761C147.051 8.03311 145.434 8.31445 143.816 8.77161C142.691 9.08811 141.688 9.65077 140.809 10.4596C139.93 11.2333 139.086 12.2355 138.277 13.4663C137.504 14.662 136.712 16.0511 135.904 17.6336C135.13 19.2161 134.251 20.9568 133.266 22.8558C133.653 22.9613 134.374 22.891 135.429 22.6448C136.519 22.3986 137.75 22.0997 139.121 21.7481C140.528 21.3612 142.005 20.992 143.552 20.6403C145.1 20.2535 146.541 19.9897 147.878 19.8491C149.249 19.6732 150.445 19.6732 151.465 19.8491C152.485 19.9897 153.17 20.3942 153.522 21.0623C153.557 21.1326 153.575 21.2381 153.575 21.3788C153.575 21.5195 153.557 21.6074 153.522 21.6426C151.658 21.9239 149.724 22.1876 147.719 22.4338C145.75 22.6448 143.781 22.9261 141.811 23.2778C139.877 23.6295 137.978 24.1042 136.115 24.7021C134.251 25.2647 132.492 26.0384 130.84 27.023C129.503 29.3792 128.308 31.8057 127.253 34.3025C126.198 36.7993 125.266 39.3313 124.457 41.8985C125.477 41.5468 126.655 41.2127 127.991 40.8962C129.363 40.5446 130.664 40.2281 131.895 39.9467C133.161 39.6654 134.251 39.4368 135.165 39.261C136.115 39.0852 136.677 38.9797 136.853 38.9445C139.842 38.4873 142.708 38.1357 145.451 37.8895C148.229 37.6082 151.113 37.5554 154.102 37.7313C154.348 37.8016 154.524 37.9423 154.63 38.1533C154.735 38.3643 154.806 38.6104 154.841 38.8918C154.876 39.1379 154.876 39.3841 154.841 39.6302C154.806 39.8764 154.77 40.0522 154.735 40.1577C150.902 39.9467 147.086 40.0874 143.288 40.5797C139.526 41.0721 135.78 41.7227 132.053 42.5315C131.455 42.6722 130.716 42.9183 129.837 43.27C128.993 43.6217 128.114 43.9381 127.2 44.2195C126.321 44.5008 125.459 44.6942 124.615 44.7997C123.806 44.9052 123.12 44.7646 122.558 44.3777C122.417 44.3074 122.294 44.2195 122.189 44.114C122.083 44.0085 122.013 43.8678 121.978 43.692Z" fill="#1F2937"/>
<path d="M161.329 43.692C161.012 43.1997 161.083 42.637 161.54 42.004C161.997 41.371 162.665 40.7028 163.544 39.9995C164.424 39.261 165.408 38.5049 166.498 37.7313C167.624 36.9576 168.661 36.1839 169.611 35.4103C170.56 34.6366 171.334 33.8981 171.932 33.1948C172.529 32.4563 172.758 31.7881 172.617 31.1903C172.582 31.0496 172.477 30.6628 172.301 30.0298C172.125 29.3616 171.932 28.6583 171.721 27.9198C171.51 27.1813 171.316 26.4955 171.14 25.8625C170.965 25.2296 170.859 24.8251 170.824 24.6493V23.4361C171.281 23.0844 171.721 23.1899 172.143 23.7526C172.6 24.3152 173.022 25.0361 173.409 25.9153C173.831 26.7593 174.217 27.6033 174.569 28.4473C174.956 29.2913 175.29 29.8188 175.571 30.0298C176.204 29.6078 176.873 29.1155 177.576 28.5528C178.314 27.955 179.035 27.3571 179.739 26.7593C180.442 26.1263 181.11 25.5285 181.743 24.9658C182.376 24.368 182.904 23.8581 183.326 23.4361C184.064 23.0492 184.574 22.891 184.855 22.9613C185.172 22.9965 185.33 23.1723 185.33 23.4888C185.33 23.8053 185.225 24.1921 185.014 24.6493C184.838 25.1065 184.627 25.5636 184.381 26.0208C184.134 26.4428 183.888 26.812 183.642 27.1285C183.431 27.445 183.326 27.6033 183.326 27.6033C181.462 29.2913 180.038 30.7331 179.053 31.9288C178.068 33.0893 177.382 34.0739 176.996 34.8828C176.644 35.6916 176.521 36.3422 176.626 36.8345C176.732 37.3268 176.96 37.7488 177.312 38.1005C177.699 38.417 178.139 38.6983 178.631 38.9445C179.123 39.1907 179.545 39.472 179.897 39.7885C180.284 40.0698 180.53 40.4215 180.635 40.8435C180.776 41.2655 180.671 41.8282 180.319 42.5315C179.369 42.7777 178.631 42.7425 178.103 42.426C177.576 42.0743 177.136 41.5996 176.785 41.0017C176.433 40.4039 176.134 39.7533 175.888 39.05C175.677 38.3467 175.396 37.7488 175.044 37.2565C174.727 36.729 174.288 36.3949 173.725 36.2543C173.198 36.0784 172.459 36.2367 171.51 36.729C170.56 37.2213 169.347 38.1181 167.87 39.4192C166.428 40.6852 164.635 42.5139 162.489 44.9052C162.384 44.8349 162.173 44.6415 161.856 44.325C161.575 44.0085 161.399 43.7975 161.329 43.692Z" fill="#1F2937"/>
<path d="M182.165 63.3677C181.849 61.3983 181.954 59.3938 182.482 57.3542C182.974 55.3497 183.642 53.3452 184.486 51.3407C185.295 49.3362 186.121 47.3317 186.965 45.3272C187.809 43.3579 188.39 41.4237 188.706 39.5247C188.706 39.4544 188.847 39.2434 189.128 38.8918C189.445 38.5401 189.779 38.1708 190.13 37.784C190.517 37.362 190.851 36.9752 191.133 36.6235C191.449 36.2367 191.625 36.0081 191.66 35.9378C192.223 34.7069 192.785 33.5816 193.348 32.5618C193.946 31.5068 194.403 30.4869 194.72 29.5023C195.036 28.5176 195.177 27.5505 195.142 26.601C195.106 25.6164 194.755 24.5614 194.087 23.4361C194.016 23.3657 193.981 23.2602 193.981 23.1196C193.981 22.9789 194.016 22.891 194.087 22.8558C195.106 21.5546 196.284 20.4645 197.621 19.5853C198.957 18.7062 200.381 18.0028 201.894 17.4753C203.406 16.9478 204.971 16.5962 206.588 16.4203C208.206 16.2445 209.806 16.2093 211.388 16.3148C212.725 17.4402 213.569 18.7237 213.92 20.1656C214.307 21.5722 214.325 23.0492 213.973 24.5966C213.657 26.1087 213.041 27.6385 212.127 29.1858C211.248 30.7331 210.228 32.1749 209.068 33.5113C207.907 34.8476 206.676 36.0433 205.375 37.0983C204.109 38.1533 202.913 38.9621 201.788 39.5247C200.768 40.0171 200.012 40.3512 199.52 40.527C199.063 40.6677 198.605 40.7556 198.148 40.7907C197.691 40.8259 197.128 40.8611 196.46 40.8962C195.827 40.9314 194.843 41.0721 193.506 41.3182C192.908 41.4237 192.399 41.7051 191.977 42.1622C191.59 42.5842 191.256 43.0766 190.974 43.6392C190.728 44.1667 190.517 44.7118 190.341 45.2745C190.201 45.8723 190.06 46.3471 189.919 46.6987C189.286 48.2461 188.706 49.6703 188.179 50.9715C187.686 52.3078 187.211 53.6089 186.754 54.8749C186.262 56.1761 185.787 57.5124 185.33 58.8839C184.873 60.2554 184.398 61.75 183.906 63.3677C183.836 63.5435 183.712 63.6842 183.537 63.7897C183.361 63.9303 183.185 64.0007 183.009 64.0007C182.798 64.0358 182.622 64.0007 182.482 63.8952C182.306 63.8248 182.2 63.649 182.165 63.3677ZM194.087 38.9445C195.704 39.261 197.269 39.1731 198.781 38.6808C200.329 38.1884 201.77 37.4323 203.107 36.4125C204.443 35.3575 205.639 34.1091 206.694 32.6673C207.784 31.1903 208.698 29.643 209.437 28.0253C210.175 26.4076 210.72 24.79 211.072 23.1723C211.424 21.5195 211.529 20.0073 211.388 18.6358C210.896 18.2138 210.298 18.0028 209.595 18.0028C208.927 17.9677 208.329 17.9852 207.801 18.0556C205.903 18.3017 204.408 18.7941 203.318 19.5326C202.228 20.2359 201.331 21.1326 200.628 22.2228C199.959 23.313 199.379 24.579 198.887 26.0208C198.394 27.4275 197.797 28.9572 197.093 30.61C196.953 30.8562 196.742 31.2958 196.46 31.9288C196.179 32.5266 195.88 33.1772 195.564 33.8805C195.247 34.5487 194.948 35.1993 194.667 35.8323C194.385 36.4653 194.192 36.9048 194.087 37.151V38.9445Z" fill="#1F2937"/>
<path d="M218.51 44.325C217.49 43.5865 216.822 42.6546 216.505 41.5292C216.224 40.4039 216.189 39.1907 216.4 37.8895C216.611 36.5532 216.98 35.1817 217.507 33.775C218.07 32.3684 218.668 31.0144 219.301 29.7133C219.969 28.4121 220.602 27.2165 221.2 26.1263C221.833 25.0361 222.325 24.1394 222.677 23.4361C222.782 23.2251 223.029 22.7151 223.415 21.9063C223.837 21.0975 224.277 20.2183 224.734 19.2688C225.191 18.3193 225.613 17.4402 226 16.6313C226.422 15.7873 226.686 15.2598 226.791 15.0488C226.897 14.873 227.038 14.5389 227.213 14.0466C227.424 13.5191 227.653 12.9564 227.899 12.3586C228.145 11.7608 228.409 11.1981 228.69 10.6706C229.007 10.1079 229.323 9.70352 229.64 9.45736C229.992 9.21119 230.326 9.17603 230.642 9.35186C230.994 9.52769 231.328 10.0552 231.644 10.9344C231.504 11.286 231.152 11.9893 230.589 13.0443C230.062 14.0993 229.429 15.3653 228.69 16.8423C227.952 18.3193 227.126 19.9546 226.211 21.7481C225.332 23.5416 224.47 25.3526 223.626 27.1813C222.782 29.01 221.991 30.8034 221.253 32.5618C220.514 34.2849 219.899 35.8674 219.406 37.3093C218.949 38.7159 218.668 39.894 218.562 40.8435C218.492 41.7578 218.668 42.3205 219.09 42.5315C219.582 42.7777 220.215 42.8832 220.989 42.848C221.798 42.7777 222.624 42.6722 223.468 42.5315C224.312 42.3908 225.139 42.2502 225.947 42.1095C226.756 41.9337 227.46 41.8633 228.057 41.8985C228.198 42.215 228.093 42.5315 227.741 42.848C227.389 43.1293 226.897 43.3931 226.264 43.6392C225.631 43.8502 224.892 44.0436 224.048 44.2195C223.24 44.3601 222.448 44.4656 221.675 44.536C220.936 44.6063 220.268 44.6239 219.67 44.5887C219.108 44.5536 218.721 44.4656 218.51 44.325Z" fill="#1F2937"/>
<path d="M236.972 44.325C235.495 43.7272 234.563 42.8304 234.176 41.6347C233.825 40.4391 233.842 39.1203 234.229 37.6785C234.616 36.2015 235.284 34.6893 236.234 33.142C237.183 31.5595 238.238 30.1177 239.399 28.8165C240.559 27.5154 241.72 26.4252 242.88 25.546C244.076 24.6317 245.096 24.1218 245.94 24.0163C248.12 23.735 249.826 23.8932 251.056 24.4911C252.322 25.0537 253.184 25.8801 253.641 26.9703C254.098 28.0605 254.221 29.344 254.01 30.821C253.799 32.2629 253.325 33.7223 252.586 35.1993C251.883 36.6763 250.951 38.1005 249.79 39.472C248.665 40.8435 247.399 42.004 245.992 42.9535C244.621 43.8678 243.161 44.4832 241.614 44.7997C240.067 45.0811 238.519 44.9228 236.972 44.325ZM236.392 41.3182C236.673 42.4436 237.271 43.0766 238.185 43.2172C239.1 43.3227 240.155 43.0942 241.35 42.5315C242.581 41.9337 243.865 41.0897 245.201 39.9995C246.537 38.8742 247.751 37.6609 248.841 36.3598C249.966 35.0586 250.881 33.7574 251.584 32.4563C252.322 31.1199 252.674 29.9594 252.639 28.9748C252.639 27.9901 252.164 27.2516 251.215 26.7593C250.3 26.2318 248.753 26.1263 246.573 26.4428C246.08 26.9 245.447 27.4626 244.674 28.1308C243.9 28.7638 243.091 29.4671 242.247 30.2408C241.438 31.0144 240.629 31.8584 239.821 32.7728C239.012 33.6519 238.308 34.5663 237.711 35.5158C237.113 36.4653 236.673 37.4323 236.392 38.417C236.146 39.4017 236.146 40.3687 236.392 41.3182Z" fill="#1F2937"/>
<path d="M257.017 44.325C256.947 44.2898 256.947 43.8854 257.017 43.1117C257.123 42.3029 257.263 41.3007 257.439 40.105C257.615 38.9093 257.843 37.5906 258.125 36.1488C258.406 34.7069 258.705 33.3354 259.022 32.0343C259.338 30.6979 259.672 29.5375 260.024 28.5528C260.411 27.533 260.78 26.8296 261.132 26.4428C261.378 26.1966 261.624 26.1966 261.87 26.4428C262.116 26.6538 262.362 26.9351 262.609 27.2868C262.855 27.6033 263.101 27.9022 263.347 28.1835C263.593 28.4297 263.857 28.4473 264.138 28.2363C265.123 26.8648 266.196 25.5636 267.356 24.3328C268.552 23.0668 269.87 21.9766 271.312 21.0623C271.453 20.9568 271.84 20.7986 272.473 20.5876C273.106 20.3414 273.827 20.1128 274.635 19.9018C275.444 19.6557 276.271 19.4622 277.115 19.3216C277.994 19.1457 278.732 19.0754 279.33 19.1106C279.963 19.1106 280.385 19.2688 280.596 19.5853C280.842 19.8667 280.737 20.359 280.28 21.0623C278.17 21.0975 276.2 21.7129 274.372 22.9086C272.543 24.1042 270.855 25.5812 269.308 27.3395C267.76 29.0979 266.354 31.0144 265.088 33.0893C263.822 35.1289 262.714 37.0279 261.765 38.7863C260.85 40.5446 260.077 42.004 259.444 43.1645C258.846 44.325 258.406 44.9052 258.125 44.9052C258.09 44.9052 257.931 44.8349 257.65 44.6942C257.369 44.5184 257.158 44.3953 257.017 44.325Z" fill="#1F2937"/>
<path d="M285.607 44.325C284.552 43.9733 283.744 43.4458 283.181 42.7425C282.653 42.004 282.302 41.1952 282.126 40.316C281.95 39.4368 281.915 38.5225 282.02 37.573C282.161 36.5883 282.372 35.6564 282.653 34.7773C283.708 33.6519 284.887 32.3684 286.188 30.9265C287.524 29.4495 288.931 28.0077 290.408 26.601C291.885 25.1944 293.414 23.8932 294.997 22.6976C296.615 21.4667 298.25 20.5348 299.903 19.9018C300.465 19.6557 300.905 19.6732 301.221 19.9546C301.573 20.2007 301.819 20.6052 301.96 21.1678C302.101 21.7305 302.153 22.3811 302.118 23.1196C302.118 23.8581 302.065 24.579 301.96 25.2823C301.854 25.9856 301.714 26.6186 301.538 27.1813C301.362 27.744 301.186 28.1308 301.01 28.3418C300.588 28.8341 299.762 29.4144 298.531 30.0825C297.336 30.7507 295.999 31.4892 294.522 32.298C293.045 33.0717 291.568 33.8805 290.091 34.7245C288.614 35.5685 287.401 36.4125 286.451 37.2565C285.502 38.0653 284.939 38.8742 284.763 39.683C284.588 40.4918 285.08 41.2303 286.24 41.8985C287.436 42.0392 288.878 41.9864 290.566 41.7402C292.289 41.4589 294.03 41.1072 295.788 40.6852C297.582 40.2281 299.305 39.7709 300.958 39.3137C302.61 38.8214 303.964 38.4346 305.019 38.1533L305.652 38.7335C304.879 39.7533 303.613 40.6852 301.854 41.5292C300.096 42.3732 298.197 43.0766 296.157 43.6392C294.118 44.1667 292.131 44.5184 290.197 44.6942C288.263 44.8349 286.733 44.7118 285.607 44.325ZM298.215 24.1746C298.18 24.1394 297.916 24.2976 297.423 24.6493C296.931 24.9658 296.316 25.4054 295.577 25.968C294.874 26.4955 294.1 27.0934 293.256 27.7615C292.447 28.3945 291.691 28.9924 290.988 29.555C290.32 30.1177 289.757 30.61 289.3 31.032C288.843 31.4189 288.649 31.6123 288.72 31.6123C289.282 31.7178 290.003 31.6474 290.882 31.4013C291.797 31.1199 292.729 30.7331 293.678 30.2408C294.663 29.7485 295.595 29.2034 296.474 28.6055C297.353 27.9725 298.039 27.3571 298.531 26.7593C299.059 26.1615 299.322 25.634 299.322 25.1768C299.358 24.7196 298.988 24.3856 298.215 24.1746Z" fill="#1F2937"/>
<path d="M305.6 44.325C305.529 44.2898 305.529 43.8854 305.6 43.1117C305.705 42.3029 305.846 41.3007 306.022 40.105C306.197 38.9093 306.426 37.5906 306.707 36.1488C306.989 34.7069 307.288 33.3354 307.604 32.0343C307.921 30.6979 308.255 29.5375 308.606 28.5528C308.993 27.533 309.362 26.8296 309.714 26.4428C309.96 26.1966 310.206 26.1966 310.453 26.4428C310.699 26.6538 310.945 26.9351 311.191 27.2868C311.437 27.6033 311.683 27.9022 311.93 28.1835C312.176 28.4297 312.44 28.4473 312.721 28.2363C313.706 26.8648 314.778 25.5636 315.939 24.3328C317.134 23.0668 318.453 21.9766 319.895 21.0623C320.036 20.9568 320.422 20.7986 321.055 20.5876C321.688 20.3414 322.409 20.1128 323.218 19.9018C324.027 19.6557 324.853 19.4622 325.697 19.3216C326.576 19.1457 327.315 19.0754 327.913 19.1106C328.546 19.1106 328.968 19.2688 329.179 19.5853C329.425 19.8667 329.319 20.359 328.862 21.0623C326.752 21.0975 324.783 21.7129 322.954 22.9086C321.126 24.1042 319.438 25.5812 317.89 27.3395C316.343 29.0979 314.936 31.0144 313.67 33.0893C312.404 35.1289 311.297 37.0279 310.347 38.7863C309.433 40.5446 308.659 42.004 308.026 43.1645C307.428 44.325 306.989 44.9052 306.707 44.9052C306.672 44.9052 306.514 44.8349 306.233 44.6942C305.951 44.5184 305.74 44.3953 305.6 44.325Z" fill="#1F2937"/>
<path d="M37.8212 16.7855C37.6109 15.7018 37.1601 14.7137 36.7987 13.7766C36.7527 13.6614 36.7086 13.5363 36.6633 13.4158C36.614 13.2875 36.5792 13.1906 36.5575 13.0996C36.5476 13.0564 36.5411 13.0157 36.5391 12.9876L36.5384 12.9673C36.5384 12.9673 36.5384 12.9745 36.5371 12.9771C36.5365 12.9791 36.5351 12.9817 36.5338 12.9843C36.5332 12.9791 36.5365 12.9706 36.5365 12.968L36.5424 12.9391L36.5443 12.9332L36.545 12.93L36.566 12.8619L36.5949 12.7715L36.6501 12.5895L36.7638 12.2241L36.8848 11.8561L37.0076 11.4887L37.2495 10.7246L37.3527 10.35L37.4545 9.97483L37.4644 9.93814L37.469 9.91456L37.4808 9.86416L37.5025 9.76264L37.5465 9.56229C37.6497 9.02535 37.7003 8.47137 37.6839 7.91675C37.6753 7.77531 37.674 7.64039 37.6576 7.4983L37.6339 7.2822C37.6254 7.21082 37.6175 7.13749 37.605 7.07725L37.5721 6.88673L37.5557 6.79045C37.5551 6.78325 37.5498 6.7551 37.5478 6.74921L37.5393 6.71775L37.5229 6.65229C37.4742 6.48269 37.3947 6.28365 37.2238 6.11078C37.1785 6.06953 37.1351 6.0263 37.0839 5.9916C37.0293 5.96017 36.9807 5.92675 36.9196 5.90056C36.8545 5.87633 36.7809 5.85276 36.7198 5.83705L36.6239 5.82266C36.6094 5.82004 36.5673 5.81347 36.5614 5.81347L36.5365 5.81151L36.4885 5.80823L36.3912 5.79908L36.1967 5.78337L35.8011 5.75584L35.602 5.74013C35.5349 5.7362 35.462 5.73619 35.3917 5.73358C35.2517 5.73161 35.1038 5.7218 34.9717 5.72638L34.5827 5.74277L34.5334 5.74405C34.4848 5.74929 34.5052 5.74736 34.4887 5.74932L34.4637 5.75324L34.3639 5.76307L34.1634 5.78533C34.0307 5.80105 33.8953 5.81283 33.7632 5.83509C33.499 5.87634 33.2342 5.91497 32.9726 5.96998C32.7104 6.01712 32.4508 6.07802 32.1919 6.13892C31.933 6.1985 31.6774 6.27118 31.4217 6.33863C31.1687 6.41393 30.9137 6.4827 30.662 6.56324L30.2822 6.6811L29.9122 6.8042L29.7282 6.86511L29.6822 6.88018L29.6513 6.88997C29.6336 6.89586 29.6132 6.89852 29.5954 6.90376C29.5586 6.90834 29.5212 6.9142 29.4962 6.91355C29.4877 6.9142 29.4864 6.91355 29.4805 6.91355H29.4772C29.4772 6.91355 29.4791 6.91423 29.4818 6.91423C29.491 6.91488 29.5008 6.92076 29.5087 6.92666L29.4772 6.91355H29.4745L29.464 6.90831L28.7793 6.58354L28.0439 6.27248L27.3 5.99224L26.5469 5.73817L25.7885 5.509L25.0249 5.30142L24.2553 5.11218L23.495 4.93996C22.4672 4.71732 21.4374 4.51499 20.38 4.39058L19.5855 4.31724C19.318 4.30349 19.0525 4.28973 18.7857 4.27991C18.5136 4.28188 18.2383 4.2799 17.9702 4.28711L17.5811 4.31328L17.3879 4.32575L17.2906 4.33163L17.2683 4.33359C17.2663 4.33162 17.2624 4.33097 17.2598 4.32835C17.2466 4.31984 17.2322 4.31003 17.2164 4.29694C17.2079 4.29104 17.2026 4.28644 17.1973 4.28251L17.1862 4.274L17.1691 4.25697L16.901 3.99571C16.7183 3.81957 16.5342 3.63688 16.3502 3.45157C16.1702 3.27149 15.9737 3.0829 15.7838 2.89759C15.5945 2.70966 15.4006 2.54467 15.2094 2.36787L15.1739 2.33446L15.1286 2.29581L15.0517 2.23099L14.8992 2.10397C14.7987 2.01819 14.6962 1.9337 14.5897 1.8525L14.2729 1.60631L13.945 1.37255C13.5041 1.06806 13.0421 0.781911 12.5479 0.552072C12.3093 0.428968 12.0405 0.332698 11.7816 0.228583C11.6561 0.185366 11.5339 0.149362 11.4084 0.108763L11.2224 0.0511317C11.1843 0.0386903 11.1941 0.0419762 11.1757 0.0387021L11.1429 0.0314681L11.0765 0.0177197C11.0357 0.00658785 10.9779 0.00595702 10.9293 0.00137334C10.8254 -0.00451997 10.7039 0.0079141 10.5869 0.0511317C10.5277 0.067502 10.4778 0.100894 10.4252 0.129706C10.374 0.158518 10.3365 0.193893 10.2938 0.227944C10.2531 0.263958 10.2189 0.303233 10.1821 0.344486C10.1617 0.36675 10.1545 0.378526 10.144 0.390967L10.1157 0.430254L10.1012 0.44796C10.1012 0.44796 10.0789 0.480671 10.0769 0.48329L10.0506 0.527173L9.99741 0.612302L9.78186 0.953456C9.71351 1.07001 9.63466 1.17939 9.57683 1.30053C9.05241 2.24149 8.68176 3.26561 8.47278 4.31724L8.34464 5.11086L8.27366 5.92022C8.26315 6.18083 8.26052 6.43751 8.25329 6.69813L8.25001 6.87494C8.24672 6.91947 8.24081 6.95744 8.23292 6.98757C8.22372 7.01638 8.21517 7.03861 8.19677 7.06218C8.18888 7.07397 8.18166 7.08514 8.17312 7.093C8.16983 7.09562 8.16589 7.10151 8.16326 7.10675C8.1626 7.11133 8.14223 7.12442 8.13171 7.13424L8.09426 7.16634C8.09426 7.16634 8.08768 7.1722 8.08374 7.17613L8.07126 7.18532L7.99503 7.24687L7.83928 7.36997C7.73742 7.45313 7.63161 7.53171 7.53172 7.6188C7.32997 7.79232 7.12625 7.95863 6.93238 8.1446C6.53546 8.49951 6.17138 8.89896 5.82834 9.31542L5.58716 9.64282C5.54642 9.69717 5.50567 9.75153 5.46756 9.80785L5.35715 9.98594L5.13832 10.3428L4.96482 10.6892L4.87807 10.864L4.8669 10.8843C4.86493 10.8902 4.84916 10.923 4.84916 10.923L4.83208 10.9682L4.79396 11.0605L4.64282 11.4291C4.53636 11.6734 4.45881 11.9275 4.36944 12.1763C4.03231 13.1814 3.80558 14.2186 3.66297 15.2618C3.62157 15.5211 3.59989 15.7869 3.57032 16.0488C3.53812 16.3147 3.5276 16.5694 3.50722 16.8274C3.47042 17.3552 3.45794 17.8843 3.48094 18.4153C3.52629 19.4742 3.69781 20.5382 4.04611 21.5506C4.2196 22.0554 4.42924 22.5485 4.68225 23.0206C4.81302 23.2524 4.94248 23.4862 5.09298 23.7134L5.20338 23.8843L5.31575 24.0428L5.42944 24.2012L5.48464 24.2798L5.55233 24.3643C6.1957 25.2169 6.98233 25.9509 7.83139 26.5848C8.68505 27.2173 9.60245 27.7444 10.556 28.2015C10.7939 28.3069 11.0285 28.4176 11.2671 28.5204C11.5168 28.6252 11.758 28.7149 12.0044 28.8085C12.2489 28.9048 12.494 28.9919 12.7391 29.0744C12.8587 29.1156 12.979 29.1562 13.0986 29.1961L13.002 29.2479C12.8502 29.3343 12.6957 29.4214 12.5492 29.5216C12.2502 29.7115 11.9729 29.9414 11.7139 30.1921L11.5266 30.3892C11.4649 30.4573 11.4103 30.5287 11.3532 30.5994L11.2677 30.7055L11.1882 30.8247C11.1383 30.9013 11.0791 30.9838 11.0377 31.0591L10.9155 31.2857L10.8563 31.3976C10.8412 31.429 10.8241 31.452 10.8077 31.4755C10.7926 31.5011 10.7722 31.5148 10.7571 31.5351C10.7361 31.5482 10.7223 31.5672 10.7012 31.5764C10.6658 31.6013 10.6073 31.6163 10.5632 31.6294L10.5001 31.6406L10.4686 31.6458L10.4614 31.6478L10.4495 31.6484L10.3286 31.6602L10.0881 31.6845C9.92447 31.693 9.76346 31.6975 9.60114 31.6969C9.27716 31.6818 8.95186 31.6556 8.63117 31.5895C8.3085 31.5319 7.98911 31.4415 7.67893 31.3492C7.60072 31.3249 7.51726 31.2942 7.43643 31.2673L7.31551 31.2254L7.25505 31.2051L7.23994 31.1999L7.23665 31.1986L7.23205 31.1973L7.20445 31.1855C7.05856 31.1233 6.91004 31.0696 6.77532 30.9904C6.63272 30.9249 6.50653 30.8332 6.37641 30.7507C6.31398 30.7048 6.25616 30.6538 6.1957 30.6073C6.16613 30.5817 6.13393 30.5608 6.10567 30.5339L6.02352 30.454C5.97161 30.3984 5.91115 30.3493 5.86317 30.289L5.71531 30.1116C5.66536 30.0526 5.63119 29.9898 5.58848 29.9308L5.52736 29.8385C5.50633 29.8104 5.48531 29.7665 5.46559 29.7298L5.34401 29.5039L5.24215 29.2839C5.16854 29.1287 5.09888 28.9683 5.02134 28.8157L4.7933 28.3554L4.75848 28.2879L4.72759 28.2329L4.54753 27.895C4.22617 27.2972 3.88641 26.6601 3.47174 26.0865C3.2437 25.7774 2.95126 25.5129 2.62465 25.3033C2.28949 25.1003 1.9228 24.9706 1.54887 24.8934C1.35435 24.8646 1.14865 24.8325 0.988959 24.8325L0.859503 24.8286L0.827304 24.826L0.812183 24.8253H0.775382L0.686668 24.8299C0.565749 24.8423 0.426423 24.8659 0.279217 24.9634C0.206929 25.0099 0.137275 25.0826 0.0860158 25.1671C0.0386997 25.2509 0.00846539 25.3446 0.00320805 25.4284C-0.00533512 25.5142 0.00452985 25.5888 0.017016 25.6582C0.0308165 25.723 0.0511895 25.7878 0.0794477 25.852C0.0932482 25.8828 0.0998133 25.8946 0.109671 25.9162L0.116901 25.9306L0.12742 25.9503L0.133326 25.9607L0.156991 25.9994C0.187878 26.0491 0.220734 26.0996 0.252935 26.1493C0.270678 26.1768 0.283822 26.1925 0.29828 26.2076L0.339683 26.2554L0.381087 26.3052L0.391596 26.3176L0.398174 26.3241L0.424457 26.3523L0.446146 26.3752C0.914706 26.827 1.30703 27.3516 1.6159 27.9245C1.92477 28.4936 2.15741 29.1228 2.30133 29.7528C2.34076 29.9112 2.3677 30.0867 2.40187 30.2517L2.50111 30.7625C2.53922 30.9373 2.58851 31.1121 2.63779 31.285L2.72519 31.5397L2.76922 31.6674L2.82378 31.7912L2.93089 32.0394C2.96966 32.1219 3.0137 32.2004 3.0551 32.2797C3.13396 32.4434 3.23648 32.5927 3.33242 32.7452C3.37711 32.8225 3.43823 32.8952 3.49211 32.9692C3.54731 33.0432 3.60252 33.1198 3.65969 33.1892L3.82924 33.3811L3.91467 33.4773L3.92518 33.4904L3.93898 33.5048L3.94358 33.5107L3.96921 33.533L4.01785 33.5801C4.52452 34.0922 5.1416 34.4929 5.79614 34.7725L6.04258 34.8753C6.12472 34.9081 6.21015 34.9343 6.29427 34.9637L6.54597 35.0482L6.80489 35.1189L7.0625 35.187L7.31419 35.2401C7.40094 35.2564 7.47717 35.2741 7.57246 35.2918L7.82745 35.333L9.68 35.6277L8.73303 39.6836L8.64957 40.0359L8.60554 40.195C8.59108 40.2487 8.56479 40.2978 8.54573 40.3496C8.45898 40.5506 8.33478 40.7307 8.17706 40.8839L8.04957 40.9906C8.00816 41.0253 7.96151 41.0509 7.91813 41.0836C7.8787 41.1138 7.82153 41.1438 7.7683 41.172L7.68878 41.2166L7.67958 41.2218L7.67695 41.2238C7.67695 41.2238 7.6763 41.2237 7.67499 41.2257L7.67301 41.2263L7.65592 41.2342L7.61452 41.2526C7.39503 41.3547 7.1729 41.4569 6.95473 41.5629L6.62812 41.7234L6.46579 41.8039L6.4244 41.8242L6.40402 41.8347C6.38496 41.8438 6.38496 41.8465 6.37445 41.8523C6.34093 41.8726 6.30742 41.8936 6.28047 41.9179C6.22067 41.963 6.17073 42.016 6.12341 42.0724C6.07675 42.1339 6.03666 42.187 6.00117 42.2741C5.99197 42.2976 5.98344 42.3225 5.97555 42.3455L5.96635 42.3893L5.96437 42.4004L5.96306 42.4063C5.96306 42.4063 5.95978 42.4351 5.95978 42.4397C5.95978 42.4666 5.96175 42.498 5.96964 42.5144C5.98015 42.5576 5.99526 42.5825 6.01103 42.6067C6.06886 42.6925 6.12473 42.7324 6.18321 42.7789C6.24039 42.8215 6.29822 42.8581 6.35999 42.8909L6.40862 42.9151C6.42702 42.9223 6.44805 42.9322 6.46054 42.9374C6.49734 42.9511 6.52231 42.957 6.55451 42.9682L6.91398 43.0814C7.0349 43.1168 7.16042 43.1338 7.28397 43.1607C7.34574 43.1718 7.40752 43.1888 7.4706 43.1954L7.65921 43.213C7.91091 43.2458 8.16457 43.2327 8.41758 43.2248L8.79413 43.1764C8.91965 43.1613 9.04123 43.1221 9.16412 43.0959C9.22458 43.0821 9.28767 43.0703 9.34813 43.0493L9.52951 42.9858C9.64845 42.9426 9.77792 42.9066 9.88241 42.8516L10.2136 42.7004L10.2314 42.6918L10.2419 42.6859L10.2636 42.6729L10.305 42.6493L10.3891 42.6002C10.4469 42.57 10.4988 42.5288 10.5527 42.4901C10.763 42.3356 10.9575 42.1464 11.0949 41.9185C11.2329 41.7011 11.3367 41.4222 11.3847 41.1982L11.9663 38.7237L12.0537 38.3727L12.9343 34.8504C12.9888 34.616 13.0611 34.4065 13.1623 34.2035C13.3128 33.8931 13.5441 33.6364 13.8261 33.44L13.8228 33.4603L13.7406 33.8368L13.575 34.5905C13.464 35.0921 13.3477 35.5936 13.2313 36.0939L12.8732 37.5928L12.5032 39.091L12.1266 40.586L11.9354 41.3324C11.871 41.5812 11.8092 41.8301 11.733 42.0717C11.5825 42.5517 11.3768 43.0192 11.041 43.3722C11.0002 43.4174 10.9582 43.4606 10.9115 43.4999C10.8688 43.5424 10.8202 43.5785 10.7729 43.6158C10.7269 43.6564 10.6769 43.6845 10.6296 43.7179C10.5843 43.7513 10.5199 43.7821 10.4666 43.8148C10.4535 43.8227 10.4371 43.8312 10.4272 43.8384L10.372 43.8764C10.3319 43.9013 10.3096 43.9314 10.2774 43.9595C10.2235 44.0191 10.1821 44.08 10.1433 44.1383C10.069 44.2562 10.0086 44.3675 9.94352 44.4546L9.94024 44.4624C9.88766 44.5423 9.91 44.651 9.99084 44.7054C10.1032 44.7794 10.2163 44.8868 10.3661 44.9863C10.4311 45.0328 10.5632 45.0911 10.6224 45.1029L10.6257 45.1055C10.6388 45.1074 10.6434 45.1101 10.6434 45.1101L10.6513 45.1114L10.6664 45.1133L10.6973 45.1192L10.761 45.1297L10.8866 45.1487C11.2211 45.1834 11.5542 45.1519 11.8736 45.0819C12.1943 45.0138 12.5025 44.9005 12.7937 44.7564C13.0841 44.6117 13.3641 44.4428 13.6158 44.2359C13.8688 44.0296 14.0994 43.7978 14.2953 43.5267L14.4346 43.3119L14.5411 43.1044L14.5555 43.0768L14.5706 43.0421L14.595 42.9891L14.641 42.8804C14.6718 42.8071 14.7047 42.7357 14.7336 42.6623C14.7901 42.5144 14.8545 42.3736 14.9058 42.2178C14.9597 42.0672 15.0149 41.9126 15.053 41.7659L15.1187 41.5341L15.1739 41.3076L16.6171 35.4156C16.7498 34.8668 16.8891 34.3227 17.0166 33.7713L17.4254 33.8676L16.276 38.6615C16.1465 39.2154 16.0033 39.7661 15.8909 40.3214L15.5347 41.986C15.4079 42.5471 15.329 43.1437 15.4006 43.7461C15.4374 44.046 15.513 44.3479 15.6405 44.6294C15.6753 44.6995 15.7082 44.7689 15.745 44.8363C15.7864 44.9031 15.8225 44.9699 15.8672 45.0354C15.9139 45.0983 15.9619 45.1729 16.0065 45.2246L16.0749 45.3071L16.1229 45.3641L16.1327 45.3752L16.1518 45.3949C16.5461 45.8264 16.9805 46.2127 17.4254 46.5794C17.5581 46.6809 17.6948 46.7621 17.8433 46.8276C17.9176 46.8604 17.9965 46.8957 18.0602 46.9147L18.1614 46.9488C18.2107 46.9658 18.2521 46.975 18.2981 46.9854C18.3914 47.0018 18.4906 47.0064 18.5951 46.9887C18.7009 46.9723 18.8113 46.9252 18.9001 46.8492C18.9888 46.7739 19.0532 46.6718 19.0874 46.5716C19.1235 46.4668 19.1314 46.3739 19.1281 46.271C19.1255 46.2462 19.1241 46.216 19.1222 46.197L19.1136 46.1434L19.1117 46.1296V46.1237L19.1084 46.1053L19.1011 46.0772L19.086 46.0189L19.0565 45.9024L19.0184 45.7937C18.9684 45.6457 18.9033 45.5049 18.8449 45.3805L18.7627 45.1919C18.7371 45.129 18.7062 45.0701 18.6878 45.0066C18.6464 44.8789 18.5971 44.7545 18.5728 44.6242C18.5018 44.3668 18.4828 44.1016 18.4722 43.8384L18.4795 43.6381L18.4828 43.5392L18.4946 43.4429L18.5176 43.2497C18.5268 43.1843 18.5452 43.1109 18.5577 43.0441L18.5899 42.8876L18.6004 42.8451L18.649 42.6375L18.7476 42.223L18.9428 41.3953L19.7281 38.0826C19.8562 37.5293 19.9831 36.9773 20.1027 36.422C20.2085 35.9394 20.3077 35.4516 20.401 34.9631C20.4457 35.0318 20.4884 35.0947 20.52 35.1569C20.5338 35.1851 20.5482 35.2178 20.5515 35.2316C20.5548 35.2401 20.5614 35.2453 20.5633 35.2702L20.5686 35.3009L20.5712 35.3134V35.3187L20.5778 35.5524C20.585 35.7122 20.5804 35.8693 20.5791 36.0285C20.5791 36.185 20.5607 36.3349 20.5528 36.4888L20.4976 36.847L20.4897 36.8974L20.4766 36.9557L19.3423 42.1601L19.2398 42.6348C19.205 42.7874 19.1715 42.9564 19.1511 43.1266C19.1439 43.2118 19.1327 43.2943 19.1307 43.3827C19.1307 43.4704 19.1274 43.5621 19.132 43.6446L19.1426 43.7657L19.1485 43.8273L19.1504 43.8574L19.1517 43.8646C19.1517 43.8646 19.1531 43.8764 19.1544 43.881L19.1577 43.898L19.2129 44.1553C19.3101 44.4913 19.4777 44.7971 19.6762 45.0721C19.8773 45.3478 20.1191 45.5855 20.3754 45.8022C20.635 46.0163 20.9202 46.1977 21.2192 46.3535C21.5222 46.5028 21.8429 46.62 22.1787 46.6914L22.4336 46.7294C22.5191 46.7431 22.6131 46.7392 22.7018 46.7431C22.7458 46.7431 22.7957 46.7477 22.8345 46.7431L22.9561 46.7314L23.0764 46.7189L23.0908 46.7176L23.1132 46.7144L23.1204 46.7124L23.1572 46.7045C23.1815 46.6999 23.2071 46.6908 23.2314 46.6862C23.282 46.6665 23.3346 46.6495 23.3872 46.6109C23.4398 46.5742 23.4956 46.5186 23.5278 46.4452C23.5613 46.3706 23.5633 46.2855 23.5508 46.2232C23.537 46.1565 23.5147 46.106 23.4851 46.0543C23.47 46.0255 23.4582 46.0091 23.4477 45.9927L23.4391 45.9803L23.4266 45.9619L23.4076 45.9397L23.1822 45.6483C22.985 45.389 22.7741 45.1408 22.5808 44.8894C22.3922 44.6471 22.249 44.3754 22.1642 44.0918C22.0801 43.8063 22.0683 43.5084 22.1136 43.2203L22.1622 42.9832L23.2682 38.5252L23.3846 38.0525L23.4877 37.5751C23.5535 37.2549 23.6356 36.9367 23.6803 36.6178C23.7329 36.2983 23.7867 35.9872 23.8354 35.6565C23.8794 35.3324 23.9044 35.003 23.9129 34.6724C23.93 34.0117 23.8413 33.3359 23.6054 32.7046C23.4825 32.391 23.3241 32.0904 23.1368 31.8115L22.9896 31.6072C22.943 31.545 22.8897 31.4854 22.8385 31.4252L23.1138 31.4703C23.3714 31.5122 23.6317 31.5469 23.8899 31.5843C24.4097 31.655 24.9315 31.7067 25.4579 31.746C25.7201 31.7663 25.9837 31.7715 26.2485 31.7846C26.512 31.7944 26.7769 31.7899 27.0424 31.7918C27.3085 31.7899 27.578 31.7722 27.8461 31.7624L28.634 31.6923C29.7026 31.5672 30.7711 31.2857 31.7529 30.7946C32.2419 30.5503 32.7131 30.2622 33.1474 29.9289C33.5812 29.5936 33.982 29.2184 34.3468 28.8131C34.4361 28.709 34.5268 28.6088 34.6149 28.502L34.8712 28.1746C34.9546 28.0653 35.023 27.9605 35.0999 27.8545L35.1558 27.7746L35.184 27.7353L35.2044 27.7051L35.2182 27.6842L35.3266 27.512L35.5415 27.1682L35.8372 26.6398L35.9259 26.4603L36.1054 26.1002C36.3275 25.6143 36.5358 25.1232 36.7139 24.6256C36.8085 24.378 36.8913 24.1273 36.9761 23.8765C37.0609 23.6244 37.1338 23.3867 37.216 23.1293C37.5268 22.1242 37.7877 21.0902 37.9172 20.0216C38.0447 18.9575 38.0341 17.8587 37.8212 16.7855ZM34.5853 6.66276L34.584 6.66344H34.5735C34.582 6.66278 34.5853 6.66276 34.5853 6.66276ZM17.2289 4.33686C17.2322 4.33621 17.2361 4.33686 17.2407 4.33686C17.2335 4.33752 17.2236 4.33754 17.219 4.33754C17.2217 4.33754 17.2243 4.33752 17.2289 4.33686ZM10.9891 0.800225H10.9865C10.9865 0.800225 10.9845 0.799576 10.9825 0.798266L10.9891 0.800225ZM10.721 0.921363L10.7196 0.924641L10.7177 0.92532C10.7177 0.92532 10.7183 0.923983 10.721 0.921363ZM0.663013 25.5358C0.670241 25.5292 0.682069 25.5089 0.68404 25.5023C0.68404 25.5063 0.684696 25.5135 0.686668 25.522L0.687319 25.5266C0.67549 25.5312 0.666956 25.5331 0.663013 25.5358ZM0.730037 25.636L0.728723 25.6327L0.730037 25.6333V25.636L0.732012 25.6405C0.732012 25.6405 0.732008 25.6399 0.730037 25.636ZM6.3107 42.4614L6.30808 42.4725C6.31005 42.4659 6.3107 42.4548 6.3107 42.4548C6.31202 42.4424 6.30742 42.4299 6.30808 42.4266C6.30742 42.422 6.30479 42.4181 6.30479 42.4181C6.30807 42.422 6.31267 42.4266 6.31727 42.4319L6.3107 42.4614ZM10.2307 44.6608L10.1827 44.4107C10.2307 44.4448 10.2754 44.4782 10.3175 44.5102C10.2912 44.5607 10.2629 44.6098 10.2307 44.6608ZM10.7144 44.7663H10.7157C10.7157 44.7663 10.719 44.7663 10.7216 44.7689C10.7052 44.765 10.7144 44.7663 10.7144 44.7663ZM18.6352 46.2042V46.2029C18.6372 46.2069 18.6372 46.2088 18.6352 46.2042Z" fill="#67EAE2"/>
</svg>
