<svg width="75" height="72" viewBox="0 0 75 72" fill="none" xmlns="http://www.w3.org/2000/svg">
<path fill-rule="evenodd" clip-rule="evenodd" d="M37.1933 20.3508C37.7905 17.4324 38.32 14.7251 38.9033 12.0294C39.5586 9.00182 40.1153 5.9397 41.0186 2.98476C41.3762 1.81533 42.4396 0.167176 43.3804 0.0226844C45.0032 -0.226604 45.3978 1.63234 45.6813 2.9673C46.9235 8.8212 48.0952 14.6894 49.2844 20.554C49.4154 21.2007 49.5424 21.8544 49.5882 22.5106C49.6778 23.7987 50.3682 23.9519 51.4925 23.7535C58.112 22.5844 64.7399 21.4626 71.3673 20.3385C71.8204 20.2615 72.3512 20.1531 72.7441 20.3111C73.5527 20.6358 74.7097 20.976 74.9423 21.5996C75.1724 22.2165 74.6795 23.5137 74.0874 23.9488C71.8602 25.5854 69.4925 27.0407 67.1224 28.4733C63.647 30.574 60.1238 32.5968 56.621 34.6527C55.3246 35.4136 54.0689 36.2584 52.7196 36.9102C51.5738 37.4635 51.5148 38.078 52.1049 39.0867C55.8283 45.4483 59.5306 51.8222 63.2102 58.2092C63.7684 59.1782 64.3394 60.1968 64.591 61.2658C64.7789 62.0652 64.7666 63.3442 64.2852 63.7475C63.7899 64.1628 62.3992 64.0945 61.7837 63.6765C60.0442 62.4951 58.4536 61.0788 56.8905 59.6613C53.2671 56.3745 49.6571 53.071 46.1232 49.6894C44.9965 48.6112 44.1265 47.2659 43.1391 46.0429C42.9269 46.1946 42.7147 46.3462 42.5021 46.4978C41.8734 48.1365 41.2281 49.7691 40.6189 51.4145C38.2651 57.7694 35.9849 64.1528 33.4977 70.4549C33.1908 71.2329 31.7013 72.1281 30.9473 71.9848C30.2011 71.8435 29.1847 70.4664 29.1684 69.6137C29.0971 65.9221 29.2763 62.2197 29.5012 58.5296C29.75 54.4485 30.1362 50.3753 30.4886 46.3006C30.5766 45.2832 30.221 44.8005 29.1588 44.8826C24.4122 45.2502 19.6679 45.6599 14.9161 45.9496C10.6862 46.2077 6.44883 46.3946 2.21261 46.4478C1.46212 46.4574 0.355695 45.8202 0.0554964 45.1819C-0.179805 44.6818 0.374805 43.4726 0.935786 43.0114C2.04182 42.1019 3.34094 41.3704 4.65759 40.7813C10.4924 38.1709 16.3482 35.6054 22.2268 33.095C24.0674 32.3091 26.0035 31.7454 28.513 30.8629C26.9364 29.7392 25.8089 29.0917 24.8696 28.2387C21.155 24.8646 17.4602 21.4662 13.8479 17.9841C12.9182 17.0878 12.1626 15.9255 11.6056 14.7537C10.9506 13.3763 11.6247 12.4625 13.14 12.7344C15.0116 13.0702 16.8431 13.6807 18.6558 14.2809C24.3529 16.1665 30.0323 18.1044 35.7214 20.0142C36.0861 20.1376 36.4747 20.1896 37.1933 20.3508Z" fill="#7CE8E2"/>
</svg>
